<?xml version="1.0" encoding="utf-8"?>
<!-- Generator: Adobe Illustrator 23.0.3, SVG Export Plug-In . SVG Version: 6.00 Build 0)  -->
<svg version="1.1" id="Layer_1" xmlns="http://www.w3.org/2000/svg" xmlns:xlink="http://www.w3.org/1999/xlink" x="0px" y="0px"
	 viewBox="0 0 732 271" style="enable-background:new 0 0 732 271;" xml:space="preserve">
<style type="text/css">
	.st0{fill:#29ABE2;}
	.st1{fill:none;}
	.st2{fill:#29ABE2;stroke:#29ABE2;stroke-width:2;stroke-miterlimit:10;}
	.st3{font-family:'PMingLiU-ExtB';}
	.st4{font-size:110px;}
	.st5{font-family:'CormorantGaramond-SemiBold';}
	.st6{font-size:80px;}
	.st7{letter-spacing:4;}
	.st8{font-size:51px;}
</style>
<g>
	<path class="st0" d="M145,17c31.8,0,61.7,12.4,84.1,34.9C251.6,74.3,264,104.2,264,136s-12.4,61.7-34.9,84.1
		C206.7,242.6,176.8,255,145,255s-61.7-12.4-84.1-34.9C38.4,197.7,26,167.8,26,136s12.4-61.7,34.9-84.1C83.3,29.4,113.2,17,145,17
		 M145,11C76,11,20,67,20,136s56,125,125,125s125-56,125-125S214,11,145,11L145,11z"/>
</g>
<g>
	<path class="st0" d="M145,27c29.1,0,56.5,11.3,77.1,31.9c20.6,20.6,31.9,48,31.9,77.1s-11.3,56.5-31.9,77.1
		c-20.6,20.6-48,31.9-77.1,31.9s-56.5-11.3-77.1-31.9C47.3,192.5,36,165.1,36,136s11.3-56.5,31.9-77.1C88.5,38.3,115.9,27,145,27
		 M145,21C81.5,21,30,72.5,30,136s51.5,115,115,115s115-51.5,115-115S208.5,21,145,21L145,21z"/>
</g>
<g>
	<path class="st0" d="M145,55c44.7,0,81,36.3,81,81s-36.3,81-81,81s-81-36.3-81-81S100.3,55,145,55 M145,48c-48.6,0-88,39.4-88,88
		s39.4,88,88,88s88-39.4,88-88S193.6,48,145,48L145,48z"/>
</g>
<rect x="97.4" y="94.8" class="st1" width="105.6" height="83.2"/>
<text transform="matrix(1 0 0 1 97.3594 169.6367)" class="st2 st3 st4">iK</text>
<text transform="matrix(1 0 0 1 296.8652 135.9551)"><tspan x="0" y="0" class="st5 st6 st7">Imzan Khan</tspan><tspan x="0" y="61.2" class="st5 st8">Web Development</tspan></text>
<rect x="428.2" y="149.2" class="st1" width="71.9" height="10.1"/>
<polygon class="st1" points="341.7,170.5 590,170.5 590,170.5 341.7,170.5 "/>
</svg>
