<svg id="Layer_1" data-name="Layer 1" xmlns="http://www.w3.org/2000/svg" viewBox="0 0 250 250"><defs><style>.cls-1{fill:#0071bc;}.cls-2{font-size:110px;fill:none;stroke:#0071bc;stroke-miterlimit:10;stroke-width:3px;font-family:PMingLiU-ExtB;}</style></defs><title>Logo-Blue</title><path class="cls-1" d="M242,106a122,122,0,1,1-86.27,35.73A121.22,121.22,0,0,1,242,106m0-3A125,125,0,1,0,367,228,125,125,0,0,0,242,103Z" transform="translate(-117 -103)"/><path class="cls-1" d="M242,114a114,114,0,1,1-80.61,33.39A113.26,113.26,0,0,1,242,114m0-3A117,117,0,1,0,359,228,117,117,0,0,0,242,111Z" transform="translate(-117 -103)"/><path class="cls-1" d="M242,141a87,87,0,1,1-87,87,87.1,87.1,0,0,1,87-87m0-3a90,90,0,1,0,90,90,90,90,0,0,0-90-90Z" transform="translate(-117 -103)"/><text class="cls-2" transform="translate(72.36 158.64)">iK</text></svg>