<?xml version="1.0" encoding="utf-8"?>
<!-- Generator: Adobe Illustrator 23.0.3, SVG Export Plug-In . SVG Version: 6.00 Build 0)  -->
<svg version="1.1" id="Fisherman" xmlns="http://www.w3.org/2000/svg" xmlns:xlink="http://www.w3.org/1999/xlink" x="0px" y="0px"
	 viewBox="0 0 400 564" style="enable-background:new 0 0 400 564;" xml:space="preserve">
<style type="text/css">
	.st0{fill:#FFFFFF;stroke:#FFFFFF;stroke-width:32;stroke-linecap:round;stroke-linejoin:round;stroke-miterlimit:10;}
	.st1{fill:#FFFFFF;stroke:#FFFFFF;stroke-width:32;stroke-linecap:round;stroke-miterlimit:10;}
	.st2{fill:#FFFFFF;stroke:#FFFFFF;stroke-width:9;stroke-linecap:round;stroke-miterlimit:10;}
	.st3{fill:#FFFFFF;stroke:#FFFFFF;stroke-width:5;stroke-linecap:round;stroke-miterlimit:10;}
	.st4{fill:#FBB03B;stroke:#000000;stroke-width:0.75;stroke-miterlimit:10;}
</style>
<g id="Full_Body">
	<polygon id="Torso" class="st0" points="363.8,313.7 347.2,321.4 300.9,197.3 317.4,189.6 	"/>
	<path id="Biceps" class="st1" d="M297.8,193.1C223,251.3,223,251.3,223,251.3"/>
	<path id="Calves" class="st1" d="M252.1,329.6C225.4,445,225.4,445,225.4,445"/>
	<rect id="Forearm" x="158" y="254.1" class="st0" width="62.8" height="1.4"/>
	<ellipse id="Head" class="st0" cx="288.7" cy="141.1" rx="16.7" ry="18.6"/>
	<path id="Quads" class="st1" d="M368,324c-114.2,3.8-114.2,3.8-114.2,3.8"/>
</g>
<polygon class="st2" points="164.8,262.2 159.5,262.6 27.7,20.4 32.9,20 "/>
<rect x="34.5" y="35.9" class="st3" width="0" height="504.6"/>
<g id="Hat">
	
		<ellipse transform="matrix(0.2668 -0.9637 0.9637 0.2668 100.0635 368.8179)" class="st4" cx="292.4" cy="118.6" rx="11.6" ry="63.8"/>
	<path class="st4" d="M264.4,104.4c-0.9-10.4,19.1-28.3,40.3-22.5c21.2,5.8,30.7,31.9,25.2,40.6
		C321.3,136.2,265.8,120.9,264.4,104.4z"/>
</g>
<ellipse class="st3" cx="310.5" cy="178" rx="12" ry="1.5"/>
</svg>
